<svg xmlns="http://www.w3.org/2000/svg" width="32" height="32" viewBox="0 0 32 32">
  <path fill="#5072A7" d="M16 5a3 3 0 1 0-5.997.125 4 4 0 0 0-2.526 5.77 4 4 0 0 0 .556 6.588A4 4 0 1 0 16 18Z">
    <animateTransform attributeName="transform" type="rotate" values="0 16 16;360 16 16" dur="1s" repeatCount="indefinite"/>
  </path>
  <path fill="#5072A7" d="M16 5a3 3 0 1 1 5.997.125 4 4 0 0 1 2.526 5.77 4 4 0 0 1-.556 6.588A4 4 0 1 1 16 18Z">
    <animateTransform attributeName="transform" type="rotate" values="0 16 16;360 16 16" dur="1s" repeatCount="indefinite"/>
  </path>
</svg>
